<mxfile host="app.diagrams.net" modified="2021-04-26T03:03:23.373Z" agent="5.0 (Windows NT 10.0; Win64; x64) AppleWebKit/537.36 (KHTML, like Gecko) Chrome/90.0.4430.85 Safari/537.36 Edg/90.0.818.46" etag="Hq_72GRzz-aGgnkY7SO3" version="14.6.5" type="github">
  <diagram id="3CidjsZdWp2Jw2qXolur" name="第 1 页">
    <mxGraphModel dx="567" dy="475" grid="0" gridSize="10" guides="1" tooltips="1" connect="1" arrows="1" fold="1" page="1" pageScale="1" pageWidth="827" pageHeight="1169" math="0" shadow="0">
      <root>
        <mxCell id="0" />
        <mxCell id="1" parent="0" />
        <mxCell id="zPhL1pRTGwQ2fPZh0taP-1" value="请求开始" style="ellipse;whiteSpace=wrap;html=1;" vertex="1" parent="1">
          <mxGeometry x="343.25" y="19" width="114" height="67" as="geometry" />
        </mxCell>
        <mxCell id="zPhL1pRTGwQ2fPZh0taP-2" value="本地是否有可用sessionStorage" style="strokeWidth=2;html=1;shape=mxgraph.flowchart.decision;whiteSpace=wrap;" vertex="1" parent="1">
          <mxGeometry x="338" y="124" width="125" height="82" as="geometry" />
        </mxCell>
        <mxCell id="zPhL1pRTGwQ2fPZh0taP-3" value="向后台发送HTTP请求" style="rounded=0;whiteSpace=wrap;html=1;" vertex="1" parent="1">
          <mxGeometry x="350.25" y="244" width="100.5" height="51" as="geometry" />
        </mxCell>
        <mxCell id="zPhL1pRTGwQ2fPZh0taP-4" value="直接渲染" style="rounded=0;whiteSpace=wrap;html=1;" vertex="1" parent="1">
          <mxGeometry x="552" y="140" width="100" height="50" as="geometry" />
        </mxCell>
        <mxCell id="zPhL1pRTGwQ2fPZh0taP-5" value="请求接口" style="rounded=0;whiteSpace=wrap;html=1;" vertex="1" parent="1">
          <mxGeometry x="349.75" y="354" width="101" height="51" as="geometry" />
        </mxCell>
        <mxCell id="zPhL1pRTGwQ2fPZh0taP-6" value="接口HTTP状态码200" style="strokeWidth=2;html=1;shape=mxgraph.flowchart.decision;whiteSpace=wrap;" vertex="1" parent="1">
          <mxGeometry x="338" y="468" width="127" height="87" as="geometry" />
        </mxCell>
        <mxCell id="zPhL1pRTGwQ2fPZh0taP-7" value="渲染数据" style="rounded=0;whiteSpace=wrap;html=1;" vertex="1" parent="1">
          <mxGeometry x="348.75" y="614" width="103" height="50" as="geometry" />
        </mxCell>
        <mxCell id="zPhL1pRTGwQ2fPZh0taP-8" value="结束" style="ellipse;whiteSpace=wrap;html=1;" vertex="1" parent="1">
          <mxGeometry x="345" y="757" width="113" height="69" as="geometry" />
        </mxCell>
        <mxCell id="zPhL1pRTGwQ2fPZh0taP-9" value="" style="endArrow=classic;html=1;exitX=0.5;exitY=1;exitDx=0;exitDy=0;entryX=0.5;entryY=0;entryDx=0;entryDy=0;entryPerimeter=0;" edge="1" parent="1" source="zPhL1pRTGwQ2fPZh0taP-1" target="zPhL1pRTGwQ2fPZh0taP-2">
          <mxGeometry width="50" height="50" relative="1" as="geometry">
            <mxPoint x="374" y="182" as="sourcePoint" />
            <mxPoint x="424" y="132" as="targetPoint" />
          </mxGeometry>
        </mxCell>
        <mxCell id="zPhL1pRTGwQ2fPZh0taP-10" value="" style="endArrow=classic;html=1;exitX=1;exitY=0.5;exitDx=0;exitDy=0;exitPerimeter=0;entryX=0;entryY=0.5;entryDx=0;entryDy=0;" edge="1" parent="1" source="zPhL1pRTGwQ2fPZh0taP-2" target="zPhL1pRTGwQ2fPZh0taP-4">
          <mxGeometry width="50" height="50" relative="1" as="geometry">
            <mxPoint x="374" y="182" as="sourcePoint" />
            <mxPoint x="424" y="132" as="targetPoint" />
          </mxGeometry>
        </mxCell>
        <mxCell id="zPhL1pRTGwQ2fPZh0taP-11" value="" style="endArrow=none;html=1;entryX=0.5;entryY=1;entryDx=0;entryDy=0;" edge="1" parent="1" target="zPhL1pRTGwQ2fPZh0taP-4">
          <mxGeometry width="50" height="50" relative="1" as="geometry">
            <mxPoint x="596" y="790" as="sourcePoint" />
            <mxPoint x="424" y="206" as="targetPoint" />
          </mxGeometry>
        </mxCell>
        <mxCell id="zPhL1pRTGwQ2fPZh0taP-12" value="" style="endArrow=classic;html=1;entryX=1;entryY=0.5;entryDx=0;entryDy=0;" edge="1" parent="1" target="zPhL1pRTGwQ2fPZh0taP-8">
          <mxGeometry width="50" height="50" relative="1" as="geometry">
            <mxPoint x="599" y="789" as="sourcePoint" />
            <mxPoint x="424" y="726" as="targetPoint" />
          </mxGeometry>
        </mxCell>
        <mxCell id="zPhL1pRTGwQ2fPZh0taP-13" value="Y" style="text;html=1;align=center;verticalAlign=middle;resizable=0;points=[];autosize=1;strokeColor=none;" vertex="1" parent="1">
          <mxGeometry x="496" y="146" width="18" height="18" as="geometry" />
        </mxCell>
        <mxCell id="zPhL1pRTGwQ2fPZh0taP-14" value="" style="endArrow=classic;html=1;exitX=0.5;exitY=1;exitDx=0;exitDy=0;exitPerimeter=0;entryX=0.5;entryY=0;entryDx=0;entryDy=0;" edge="1" parent="1" source="zPhL1pRTGwQ2fPZh0taP-2" target="zPhL1pRTGwQ2fPZh0taP-3">
          <mxGeometry width="50" height="50" relative="1" as="geometry">
            <mxPoint x="374" y="330" as="sourcePoint" />
            <mxPoint x="424" y="280" as="targetPoint" />
          </mxGeometry>
        </mxCell>
        <mxCell id="zPhL1pRTGwQ2fPZh0taP-15" value="" style="endArrow=classic;html=1;exitX=0.5;exitY=1;exitDx=0;exitDy=0;" edge="1" parent="1" source="zPhL1pRTGwQ2fPZh0taP-3">
          <mxGeometry width="50" height="50" relative="1" as="geometry">
            <mxPoint x="374" y="479" as="sourcePoint" />
            <mxPoint x="401" y="352" as="targetPoint" />
          </mxGeometry>
        </mxCell>
        <mxCell id="zPhL1pRTGwQ2fPZh0taP-16" value="" style="endArrow=classic;html=1;exitX=0.5;exitY=1;exitDx=0;exitDy=0;entryX=0.5;entryY=0;entryDx=0;entryDy=0;entryPerimeter=0;" edge="1" parent="1" source="zPhL1pRTGwQ2fPZh0taP-5" target="zPhL1pRTGwQ2fPZh0taP-6">
          <mxGeometry width="50" height="50" relative="1" as="geometry">
            <mxPoint x="374" y="553" as="sourcePoint" />
            <mxPoint x="424" y="503" as="targetPoint" />
          </mxGeometry>
        </mxCell>
        <mxCell id="zPhL1pRTGwQ2fPZh0taP-17" value="" style="endArrow=classic;html=1;exitX=0.5;exitY=1;exitDx=0;exitDy=0;exitPerimeter=0;entryX=0.5;entryY=0;entryDx=0;entryDy=0;" edge="1" parent="1" source="zPhL1pRTGwQ2fPZh0taP-6" target="zPhL1pRTGwQ2fPZh0taP-7">
          <mxGeometry width="50" height="50" relative="1" as="geometry">
            <mxPoint x="374" y="627" as="sourcePoint" />
            <mxPoint x="424" y="577" as="targetPoint" />
          </mxGeometry>
        </mxCell>
        <mxCell id="zPhL1pRTGwQ2fPZh0taP-18" value="" style="endArrow=classic;html=1;exitX=0.5;exitY=1;exitDx=0;exitDy=0;entryX=0.5;entryY=0;entryDx=0;entryDy=0;" edge="1" parent="1" source="zPhL1pRTGwQ2fPZh0taP-7" target="zPhL1pRTGwQ2fPZh0taP-8">
          <mxGeometry width="50" height="50" relative="1" as="geometry">
            <mxPoint x="374" y="702" as="sourcePoint" />
            <mxPoint x="424" y="652" as="targetPoint" />
          </mxGeometry>
        </mxCell>
        <mxCell id="zPhL1pRTGwQ2fPZh0taP-20" value="" style="endArrow=none;html=1;entryX=0;entryY=0.5;entryDx=0;entryDy=0;entryPerimeter=0;" edge="1" parent="1" target="zPhL1pRTGwQ2fPZh0taP-6">
          <mxGeometry width="50" height="50" relative="1" as="geometry">
            <mxPoint x="239" y="512" as="sourcePoint" />
            <mxPoint x="424" y="577" as="targetPoint" />
          </mxGeometry>
        </mxCell>
        <mxCell id="zPhL1pRTGwQ2fPZh0taP-27" value="N" style="edgeLabel;html=1;align=center;verticalAlign=middle;resizable=0;points=[];" vertex="1" connectable="0" parent="zPhL1pRTGwQ2fPZh0taP-20">
          <mxGeometry x="-0.2525" y="-2" relative="1" as="geometry">
            <mxPoint as="offset" />
          </mxGeometry>
        </mxCell>
        <mxCell id="zPhL1pRTGwQ2fPZh0taP-23" value="" style="endArrow=none;html=1;" edge="1" parent="1">
          <mxGeometry width="50" height="50" relative="1" as="geometry">
            <mxPoint x="242" y="794" as="sourcePoint" />
            <mxPoint x="242" y="513" as="targetPoint" />
          </mxGeometry>
        </mxCell>
        <mxCell id="zPhL1pRTGwQ2fPZh0taP-24" value="" style="endArrow=classic;html=1;entryX=0;entryY=0.522;entryDx=0;entryDy=0;entryPerimeter=0;" edge="1" parent="1" target="zPhL1pRTGwQ2fPZh0taP-8">
          <mxGeometry width="50" height="50" relative="1" as="geometry">
            <mxPoint x="243" y="793" as="sourcePoint" />
            <mxPoint x="339" y="793" as="targetPoint" />
          </mxGeometry>
        </mxCell>
        <mxCell id="zPhL1pRTGwQ2fPZh0taP-25" value="N" style="text;html=1;align=center;verticalAlign=middle;resizable=0;points=[];autosize=1;strokeColor=none;" vertex="1" parent="1">
          <mxGeometry x="398" y="211" width="19" height="18" as="geometry" />
        </mxCell>
        <mxCell id="zPhL1pRTGwQ2fPZh0taP-26" value="Y" style="text;html=1;align=center;verticalAlign=middle;resizable=0;points=[];autosize=1;strokeColor=none;" vertex="1" parent="1">
          <mxGeometry x="406" y="567" width="18" height="18" as="geometry" />
        </mxCell>
      </root>
    </mxGraphModel>
  </diagram>
</mxfile>
